<mxfile host="Electron" modified="2024-07-21T19:24:32.035Z" agent="Mozilla/5.0 (Windows NT 10.0; Win64; x64) AppleWebKit/537.36 (KHTML, like Gecko) draw.io/24.6.4 Chrome/124.0.6367.207 Electron/30.0.6 Safari/537.36" etag="ox91xYCKTGrxBVTswQo6" version="24.6.4" type="device">
  <diagram name="Page-1" id="lb7OKiC18XNJB1lAqmsj">
    <mxGraphModel dx="714" dy="418" grid="1" gridSize="10" guides="1" tooltips="1" connect="1" arrows="1" fold="1" page="1" pageScale="1" pageWidth="850" pageHeight="1100" math="0" shadow="0">
      <root>
        <mxCell id="0" />
        <mxCell id="1" parent="0" />
        <mxCell id="L0tVARweL2b-nCjnJJE7-1" value="" style="rounded=0;whiteSpace=wrap;html=1;dashed=1;strokeWidth=2;strokeColor=#00CCCC;" vertex="1" parent="1">
          <mxGeometry x="249" y="70" width="111" height="290" as="geometry" />
        </mxCell>
        <mxCell id="L0tVARweL2b-nCjnJJE7-7" value="Master Node" style="rounded=1;whiteSpace=wrap;html=1;fontSize=15;fillColor=#dae8fc;strokeColor=#6c8ebf;" vertex="1" parent="1">
          <mxGeometry x="270" y="120" width="70" height="50" as="geometry" />
        </mxCell>
        <mxCell id="L0tVARweL2b-nCjnJJE7-8" value="" style="rounded=0;whiteSpace=wrap;html=1;dashed=1;strokeWidth=2;strokeColor=#00CCCC;" vertex="1" parent="1">
          <mxGeometry x="390" y="70" width="111" height="290" as="geometry" />
        </mxCell>
        <mxCell id="L0tVARweL2b-nCjnJJE7-9" value="" style="rounded=0;whiteSpace=wrap;html=1;dashed=1;strokeWidth=2;strokeColor=#00CCCC;" vertex="1" parent="1">
          <mxGeometry x="530" y="70" width="111" height="290" as="geometry" />
        </mxCell>
        <mxCell id="L0tVARweL2b-nCjnJJE7-10" value="" style="endArrow=none;dashed=1;html=1;rounded=0;strokeWidth=2;strokeColor=#00CC00;" edge="1" parent="1">
          <mxGeometry width="50" height="50" relative="1" as="geometry">
            <mxPoint x="110" y="110" as="sourcePoint" />
            <mxPoint x="670" y="110" as="targetPoint" />
          </mxGeometry>
        </mxCell>
        <mxCell id="L0tVARweL2b-nCjnJJE7-11" value="" style="endArrow=none;dashed=1;html=1;rounded=0;strokeWidth=2;strokeColor=#00CC00;" edge="1" parent="1">
          <mxGeometry width="50" height="50" relative="1" as="geometry">
            <mxPoint x="109" y="180" as="sourcePoint" />
            <mxPoint x="669" y="180" as="targetPoint" />
          </mxGeometry>
        </mxCell>
        <mxCell id="L0tVARweL2b-nCjnJJE7-12" value="Control Plane" style="text;html=1;align=center;verticalAlign=middle;resizable=0;points=[];autosize=1;strokeColor=none;fillColor=none;fontSize=20;" vertex="1" parent="1">
          <mxGeometry x="100" y="110" width="140" height="40" as="geometry" />
        </mxCell>
        <mxCell id="L0tVARweL2b-nCjnJJE7-13" value="&lt;font style=&quot;font-size: 20px;&quot;&gt;Work Nodes&lt;/font&gt;" style="text;html=1;align=center;verticalAlign=middle;resizable=0;points=[];autosize=1;strokeColor=none;fillColor=none;fontSize=20;" vertex="1" parent="1">
          <mxGeometry x="105" y="240" width="130" height="40" as="geometry" />
        </mxCell>
        <mxCell id="L0tVARweL2b-nCjnJJE7-14" value="Work Node" style="rounded=1;whiteSpace=wrap;html=1;fontSize=15;fillColor=#dae8fc;strokeColor=#6c8ebf;" vertex="1" parent="1">
          <mxGeometry x="269.5" y="195" width="70" height="50" as="geometry" />
        </mxCell>
        <mxCell id="L0tVARweL2b-nCjnJJE7-15" value="Work Node" style="rounded=1;whiteSpace=wrap;html=1;fontSize=15;fillColor=#dae8fc;strokeColor=#6c8ebf;" vertex="1" parent="1">
          <mxGeometry x="269.5" y="260" width="70" height="50" as="geometry" />
        </mxCell>
        <mxCell id="L0tVARweL2b-nCjnJJE7-16" value="Work Node" style="rounded=1;whiteSpace=wrap;html=1;fontSize=15;fillColor=#dae8fc;strokeColor=#6c8ebf;" vertex="1" parent="1">
          <mxGeometry x="410.5" y="195" width="70" height="50" as="geometry" />
        </mxCell>
        <mxCell id="L0tVARweL2b-nCjnJJE7-17" value="Work Node" style="rounded=1;whiteSpace=wrap;html=1;fontSize=15;fillColor=#dae8fc;strokeColor=#6c8ebf;" vertex="1" parent="1">
          <mxGeometry x="410.5" y="260" width="70" height="50" as="geometry" />
        </mxCell>
        <mxCell id="L0tVARweL2b-nCjnJJE7-18" value="Work Node" style="rounded=1;whiteSpace=wrap;html=1;fontSize=15;fillColor=#dae8fc;strokeColor=#6c8ebf;" vertex="1" parent="1">
          <mxGeometry x="550.5" y="190" width="70" height="50" as="geometry" />
        </mxCell>
        <mxCell id="L0tVARweL2b-nCjnJJE7-19" value="Work Node" style="rounded=1;whiteSpace=wrap;html=1;fontSize=15;fillColor=#dae8fc;strokeColor=#6c8ebf;" vertex="1" parent="1">
          <mxGeometry x="550.5" y="260" width="70" height="50" as="geometry" />
        </mxCell>
        <mxCell id="L0tVARweL2b-nCjnJJE7-24" value="" style="group" vertex="1" connectable="0" parent="1">
          <mxGeometry x="280" y="330" width="40" height="20" as="geometry" />
        </mxCell>
        <mxCell id="L0tVARweL2b-nCjnJJE7-21" value="" style="shape=waypoint;sketch=0;size=6;pointerEvents=1;points=[];fillColor=none;resizable=0;rotatable=0;perimeter=centerPerimeter;snapToPoint=1;" vertex="1" parent="L0tVARweL2b-nCjnJJE7-24">
          <mxGeometry width="20" height="20" as="geometry" />
        </mxCell>
        <mxCell id="L0tVARweL2b-nCjnJJE7-22" value="" style="shape=waypoint;sketch=0;size=6;pointerEvents=1;points=[];fillColor=none;resizable=0;rotatable=0;perimeter=centerPerimeter;snapToPoint=1;" vertex="1" parent="L0tVARweL2b-nCjnJJE7-24">
          <mxGeometry x="10.5" width="20" height="20" as="geometry" />
        </mxCell>
        <mxCell id="L0tVARweL2b-nCjnJJE7-23" value="" style="shape=waypoint;sketch=0;size=6;pointerEvents=1;points=[];fillColor=none;resizable=0;rotatable=0;perimeter=centerPerimeter;snapToPoint=1;" vertex="1" parent="L0tVARweL2b-nCjnJJE7-24">
          <mxGeometry x="20" width="20" height="20" as="geometry" />
        </mxCell>
        <mxCell id="L0tVARweL2b-nCjnJJE7-25" value="" style="group" vertex="1" connectable="0" parent="1">
          <mxGeometry x="425" y="330" width="40" height="20" as="geometry" />
        </mxCell>
        <mxCell id="L0tVARweL2b-nCjnJJE7-26" value="" style="shape=waypoint;sketch=0;size=6;pointerEvents=1;points=[];fillColor=none;resizable=0;rotatable=0;perimeter=centerPerimeter;snapToPoint=1;" vertex="1" parent="L0tVARweL2b-nCjnJJE7-25">
          <mxGeometry width="20" height="20" as="geometry" />
        </mxCell>
        <mxCell id="L0tVARweL2b-nCjnJJE7-27" value="" style="shape=waypoint;sketch=0;size=6;pointerEvents=1;points=[];fillColor=none;resizable=0;rotatable=0;perimeter=centerPerimeter;snapToPoint=1;" vertex="1" parent="L0tVARweL2b-nCjnJJE7-25">
          <mxGeometry x="10.5" width="20" height="20" as="geometry" />
        </mxCell>
        <mxCell id="L0tVARweL2b-nCjnJJE7-28" value="" style="shape=waypoint;sketch=0;size=6;pointerEvents=1;points=[];fillColor=none;resizable=0;rotatable=0;perimeter=centerPerimeter;snapToPoint=1;" vertex="1" parent="L0tVARweL2b-nCjnJJE7-25">
          <mxGeometry x="20" width="20" height="20" as="geometry" />
        </mxCell>
        <mxCell id="L0tVARweL2b-nCjnJJE7-29" value="" style="group" vertex="1" connectable="0" parent="1">
          <mxGeometry x="565.5" y="330" width="40" height="20" as="geometry" />
        </mxCell>
        <mxCell id="L0tVARweL2b-nCjnJJE7-30" value="" style="shape=waypoint;sketch=0;size=6;pointerEvents=1;points=[];fillColor=none;resizable=0;rotatable=0;perimeter=centerPerimeter;snapToPoint=1;" vertex="1" parent="L0tVARweL2b-nCjnJJE7-29">
          <mxGeometry width="20" height="20" as="geometry" />
        </mxCell>
        <mxCell id="L0tVARweL2b-nCjnJJE7-31" value="" style="shape=waypoint;sketch=0;size=6;pointerEvents=1;points=[];fillColor=none;resizable=0;rotatable=0;perimeter=centerPerimeter;snapToPoint=1;" vertex="1" parent="L0tVARweL2b-nCjnJJE7-29">
          <mxGeometry x="10.5" width="20" height="20" as="geometry" />
        </mxCell>
        <mxCell id="L0tVARweL2b-nCjnJJE7-32" value="" style="shape=waypoint;sketch=0;size=6;pointerEvents=1;points=[];fillColor=none;resizable=0;rotatable=0;perimeter=centerPerimeter;snapToPoint=1;" vertex="1" parent="L0tVARweL2b-nCjnJJE7-29">
          <mxGeometry x="20" width="20" height="20" as="geometry" />
        </mxCell>
        <mxCell id="L0tVARweL2b-nCjnJJE7-33" value="(Only a single replica&amp;nbsp;&lt;div&gt;running in one node)&lt;/div&gt;" style="text;html=1;align=center;verticalAlign=middle;resizable=0;points=[];autosize=1;strokeColor=none;fillColor=none;fontColor=#666666;" vertex="1" parent="1">
          <mxGeometry x="105" y="140" width="140" height="40" as="geometry" />
        </mxCell>
        <mxCell id="L0tVARweL2b-nCjnJJE7-35" value="(running in different&amp;nbsp;&lt;div&gt;zones&lt;span style=&quot;background-color: initial;&quot;&gt;)&lt;/span&gt;&lt;/div&gt;" style="text;html=1;align=center;verticalAlign=middle;resizable=0;points=[];autosize=1;strokeColor=none;fillColor=none;fontColor=#666666;" vertex="1" parent="1">
          <mxGeometry x="105" y="270" width="130" height="40" as="geometry" />
        </mxCell>
        <mxCell id="L0tVARweL2b-nCjnJJE7-36" value="&lt;font style=&quot;font-size: 20px;&quot;&gt;Zone&lt;/font&gt;" style="text;html=1;align=center;verticalAlign=middle;resizable=0;points=[];autosize=1;strokeColor=none;fillColor=none;" vertex="1" parent="1">
          <mxGeometry x="270" y="70" width="70" height="40" as="geometry" />
        </mxCell>
        <mxCell id="L0tVARweL2b-nCjnJJE7-37" value="&lt;font style=&quot;font-size: 20px;&quot;&gt;Zone&lt;/font&gt;" style="text;html=1;align=center;verticalAlign=middle;resizable=0;points=[];autosize=1;strokeColor=none;fillColor=none;" vertex="1" parent="1">
          <mxGeometry x="410" y="70" width="70" height="40" as="geometry" />
        </mxCell>
        <mxCell id="L0tVARweL2b-nCjnJJE7-38" value="&lt;font style=&quot;font-size: 20px;&quot;&gt;Zone&lt;/font&gt;" style="text;html=1;align=center;verticalAlign=middle;resizable=0;points=[];autosize=1;strokeColor=none;fillColor=none;" vertex="1" parent="1">
          <mxGeometry x="550.5" y="70" width="70" height="40" as="geometry" />
        </mxCell>
      </root>
    </mxGraphModel>
  </diagram>
</mxfile>
